<?xml version="1.0" encoding="utf-8"?>
<!-- Generator: Adobe Illustrator 15.0.0, SVG Export Plug-In . SVG Version: 6.00 Build 0)  -->
<!DOCTYPE svg PUBLIC "-//W3C//DTD SVG 1.1//EN" "http://www.w3.org/Graphics/SVG/1.1/DTD/svg11.dtd">
<svg version="1.1" id="Layer_1" xmlns="http://www.w3.org/2000/svg" xmlns:xlink="http://www.w3.org/1999/xlink" x="0px" y="0px"
	 width="500px" height="500px" viewBox="0 0 500 500" enable-background="new 0 0 500 500" xml:space="preserve">
<path fill-rule="evenodd" clip-rule="evenodd" fill="#EF6162" d="M31,226c-1.66-2.378-1.66-11.622,0-14
	C31,216.667,31,221.333,31,226z"/>
<path fill-rule="evenodd" clip-rule="evenodd" fill="#EF6162" d="M96,225c-1.658-1.725-1.658-10.275,0-12C96,217,96,221,96,225z"/>
<path fill-rule="evenodd" clip-rule="evenodd" fill="#EFB1B8" d="M297,213c1.658,1.725,1.658,10.275,0,12C297,221,297,217,297,213z"
	/>
<path fill-rule="evenodd" clip-rule="evenodd" fill="#EF6162" d="M391,213c1.658,1.725,1.658,10.275,0,12C391,221,391,217,391,213z"
	/>
<path fill-rule="evenodd" clip-rule="evenodd" fill="#EF6162" d="M270,214c1.657,1.4,1.657,9.6,0,11
	C270,221.333,270,217.667,270,214z"/>
<path fill-rule="evenodd" clip-rule="evenodd" fill="#420380" d="M261,248c-2.378-2.956-5.909-4.757-9-7
	c-0.785,5.118,1.402,7.264,1,12c-6.806-10.194-13.446-20.554-19-32c12.219,3.115,23.104,7.563,36,10c0.161,1.172,1.823,0.843,3,1
	c-0.31,1.357-2.504,0.83-4,1c-2.667,0-5.333,0-8,0c-1.846,1.913,4.18,4.438,6,6c6.819,5.514,13.342,11.324,21,16
	c9.669,8.664,19.705,16.961,31,24c5.565,5.768,12.03,10.637,19,15c7.729,7.938,17.429,13.904,26,21c3.52,2.147,5.585,5.748,10,7
	c3.562,5.438,9.864,8.136,19,8c27.549,3.118,40.163,21.171,59,33c-7.781,3.098-16.996-0.991-26,0c-0.81,0.19-0.997,1.003-2,1
	c1.618,4.716,5.72,6.946,9,10c0.56,1.44,1.56,2.44,3,3c-4.345,0.988-8.958-6.358-14-8c-4.206,8.257,3.728,18.857,5,28
	c-16.534-15.133-38.786-24.547-46-49c-3.039-8.628-8.88-14.454-16-19c-2.631-1.369-3.79-4.21-7-5c-8.497-7.503-17.235-14.765-27-21
	c-5.659-5.674-12.397-10.27-19-15c-9.459-8.207-19.084-16.25-30-23C275.967,258.367,268.17,253.496,261,248z"/>
<path fill-rule="evenodd" clip-rule="evenodd" fill="#EF6162" d="M222,391c3.667,0,7.333,0,11,0
	C231.6,392.657,223.4,392.657,222,391z"/>
<path fill-rule="evenodd" clip-rule="evenodd" fill="#EF6162" d="M236,425c-3.365,1.662-13.635,1.662-17,0
	C224.667,425,230.333,425,236,425z"/>
<path fill-rule="evenodd" clip-rule="evenodd" fill="#EFB1B8" d="M82,80c5.363-7.303,11.362-13.972,19-19
	C94.941,67.608,88.696,74.029,82,80z"/>
<path fill-rule="evenodd" clip-rule="evenodd" fill="#EF6162" d="M85,362c4.751,3.915,9.084,8.249,13,13
	C93.249,371.085,88.916,366.751,85,362z"/>
<path fill-rule="evenodd" clip-rule="evenodd" fill="#EFB1B8" d="M373,358c-4.686,5.98-9.02,12.314-16,16
	C362.703,369.037,367.342,363.008,373,358z"/>
<path fill-rule="evenodd" clip-rule="evenodd" fill="#EFB1B8" d="M426,363c-2.555,4.935,5.59,6.801,7,11
	c-3.28-3.054-7.382-5.284-9-10C425.003,364.003,425.19,363.19,426,363z"/>
<path fill-rule="evenodd" clip-rule="evenodd" fill="#BE0D0D" d="M272,19c84.753,20.264,147.623,97.644,152,194
	c2.079,45.781-12.196,82.938-31,117c-9.136,0.136-15.438-2.562-19-8c1.834,1.166,3.386,2.614,5,4c19.839-26.857,33-63.403,33-107
	c0-101.482-66.709-168.063-146-189C265.047,27.344,272.107,24.135,272,19z"/>
<path fill-rule="evenodd" clip-rule="evenodd" fill="#F20000" d="M374,322c-4.415-1.252-6.48-4.853-10-7
	c14.729-24.271,26.627-51.373,27-90c1.658-1.725,1.658-10.275,0-12c-5.821-89.938-63.975-160.823-155-166
	c-54.716-3.112-96.132,21.132-124,49c-26.375,26.375-43.826,61.99-48,108c-2.308,3.025-0.353,10.314-1,15c0,0.333,0,0.667,0,1
	c0.645,4.355-1.304,11.304,1,14c3.212,46.121,21.039,77.627,44,104c3.916,4.751,8.249,9.085,13,13
	c25.755,21.244,55.092,38.908,101,40c1.4,1.657,9.6,1.657,11,0c46.426-1.574,76.884-19.117,102-42c3.752-2.915,7.085-6.248,10-10
	c5.598-3.735,8.488-10.179,13-15c3.21,0.79,4.369,3.631,7,5c1.455,4.212,7.441,3.893,8,9c-33.126,40.192-78.229,75-146,75
	c-92.657,0-144.05-60.404-173-124c-2.81,2.711-0.79,2.489,0,6c-3.334-1.492-2.967-4.489-1-7c-5.116,0.147-1.574,10.75-7,7
	c0.163,1.163-0.221,1.779-1,2c-7.219-21.114-13.575-43.092-14-71c0-4.667,0-9.333,0-14c2.223-58.777,24.007-97.992,51-132
	c6.696-5.971,12.941-12.392,19-19c36.531-33.044,102.718-59.598,171-42c0.107,5.135-6.953,8.344-6,11
	c79.291,20.937,146,87.518,146,189c0,43.597-13.161,80.143-33,107C377.386,324.614,375.834,323.166,374,322z"/>
<path fill-rule="evenodd" clip-rule="evenodd" fill="#EF6162" d="M108,338c4.751,3.915,9.084,8.249,13,13
	C116.249,347.085,111.916,342.751,108,338z"/>
<path fill-rule="evenodd" clip-rule="evenodd" fill="#EFB1B8" d="M335,349c2.915-3.752,6.248-7.085,10-10
	C342.085,342.752,338.752,346.085,335,349z"/>
<path fill-rule="evenodd" clip-rule="evenodd" fill="#BE0D0D" d="M365,329c7.12,4.546,12.961,10.372,16,19
	c-3.099,2.901-5.636,6.364-8,10c-5.658,5.008-10.297,11.037-16,16c-30.571,26.762-66.752,47.914-121,51c-5.667,0-11.333,0-17,0
	c-54.318-2.682-89.817-24.183-121-50c-3.916-4.751-8.249-9.085-13-13c-16.045-18.955-29.756-40.243-40-65
	c0.779-0.221,1.163-0.837,1-2c5.426,3.75,1.884-6.853,7-7c-1.967,2.511-2.334,5.508,1,7c-0.79-3.511-2.81-3.289,0-6
	c28.95,63.596,80.343,124,173,124c67.771,0,112.874-34.808,146-75C372.441,332.893,366.455,333.212,365,329z"/>
<path fill-rule="evenodd" clip-rule="evenodd" fill="#EFB1B8" d="M326,311c-4.446,6.22-9.363,11.97-16,16
	C314.809,321.142,320.648,316.314,326,311z"/>
<path fill-rule="evenodd" clip-rule="evenodd" fill="#F20000" d="M338,294c-6.97-4.363-13.435-9.232-19-15
	c42.299-75.565-7.024-179.909-102-172c-56.937,4.741-101.686,56.583-97,122c5.812,81.135,99.889,137.87,176,77
	c3.752-2.915,7.085-6.248,10-10c1.912-2.754,4.438-4.896,6-8c6.603,4.73,13.341,9.326,19,15c-0.315,4.018-4.102,4.565-5,8
	c-5.352,5.314-11.191,10.142-16,16c-24.359,18.412-53.943,33.322-95,30c-68.76-5.564-114.383-63.682-119-132c0-4,0-8,0-12
	c5.333-73.23,56.783-132.11,132-132C332.314,81.152,392,204.528,338,294z"/>
<path fill-rule="evenodd" clip-rule="evenodd" fill="#EF6162" d="M296,306c2.915-3.752,6.248-7.085,10-10
	C303.085,299.752,299.752,303.085,296,306z"/>
<path fill-rule="evenodd" clip-rule="evenodd" fill="#F20000" d="M288,255c-7.658-4.676-14.181-10.486-21-16
	c0.329-2.337,1.202-4.131,2-6c1.496-0.17,3.69,0.357,4-1c-1.177-0.157-2.839,0.172-3-1c0-2,0-4,0-6c1.657-1.4,1.657-9.6,0-11
	c-6.629-61.033-94.816-47.338-86,14c2.819,19.611,19.639,39.809,48,37c12.996-1.287,21.65-8.052,29-17
	c7.17,5.496,14.967,10.367,21,17c-28.771,40.693-89.904,31.942-113-5c-16.55-26.472-14.027-64.916,4-88
	c36.198-46.351,121.354-24.285,124,41c0,4,0,8,0,12C295.707,236.707,292.733,246.734,288,255z"/>
<path fill-rule="evenodd" clip-rule="evenodd" fill="#FFFFFF" d="M267,239c-1.82-1.563-7.846-4.087-6-6c2.667,0,5.333,0,8,0
	C268.202,234.869,267.329,236.663,267,239z"/>
<path fill-rule="evenodd" clip-rule="evenodd" fill="#EFB1B8" d="M63,220c2.304,2.696,0.355,9.645,1,14
	C61.696,231.304,63.645,224.355,63,220z"/>
<path fill-rule="evenodd" clip-rule="evenodd" fill="#EFB1B8" d="M64,204c-0.647,4.686,1.308,11.975-1,15
	C63.647,214.314,61.692,207.025,64,204z"/>
</svg>
