<?xml version="1.0" standalone="no"?>
<!DOCTYPE svg PUBLIC "-//W3C//DTD SVG 20010904//EN"
 "http://www.w3.org/TR/2001/REC-SVG-20010904/DTD/svg10.dtd">
<svg version="1.0" xmlns="http://www.w3.org/2000/svg"
 width="1280.000000pt" height="1280.000000pt" viewBox="0 0 1280.000000 1280.000000"
 preserveAspectRatio="xMidYMid meet">
<metadata>
Created by potrace 1.16, written by Peter Selinger 2001-2019
</metadata>
<g transform="translate(0.000000,1280.000000) scale(0.100000,-0.100000)"
fill="#000000" stroke="none">
<path d="M285 9466 c-112 -28 -206 -103 -253 -204 l-27 -57 0 -2805 0 -2805
27 -57 c48 -104 149 -182 266 -207 76 -16 12128 -16 12204 0 117 25 218 103
266 207 l27 57 0 2805 0 2805 -27 57 c-48 104 -149 182 -266 207 -81 17
-12148 14 -12217 -3z m11765 -3066 l0 -2790 -5545 0 -5545 0 0 2790 0 2790
5545 0 5545 0 0 -2790z m-11478 2163 c16 -15 18 -36 18 -242 0 -189 -3 -230
-16 -249 -14 -21 -22 -22 -143 -22 -140 0 -165 8 -159 50 5 36 42 50 136 50
l82 0 0 170 0 170 -98 0 c-103 0 -122 7 -122 45 0 40 18 45 154 45 106 0 133
-3 148 -17z m11908 -1128 c62 -32 60 -5 60 -785 0 -787 3 -752 -65 -784 -44
-21 -94 -9 -125 31 -20 25 -20 39 -20 753 l0 727 21 27 c36 46 80 56 129 31z
m-11909 -574 l29 -29 0 -432 0 -432 -29 -29 c-28 -28 -33 -29 -126 -29 -53 0
-105 5 -117 11 -45 24 -48 53 -48 479 0 423 3 453 47 479 10 6 62 11 116 11
96 0 99 -1 128 -29z m-5 -2253 c24 -59 21 -234 -6 -294 -37 -84 -148 -121
-220 -72 -68 46 -80 77 -80 207 0 123 6 141 45 141 38 0 45 -19 45 -127 0 -97
2 -106 25 -128 28 -29 51 -31 83 -9 22 15 23 22 21 127 -2 98 1 117 20 155 12
23 28 42 35 42 8 0 22 -19 32 -42z m11925 -429 c15 -10 34 -35 44 -55 24 -51
13 -99 -35 -146 -31 -32 -44 -38 -79 -38 -131 0 -189 146 -93 233 43 39 112
42 163 6z"/>
</g>
</svg>
